<svg width="60" height="60" viewBox="0 0 60 60" fill="none" xmlns="http://www.w3.org/2000/svg">
<g filter="url(#filter0_i_1563_395)">
<path d="M57.5928 0C57.3078 0 57.0154 0.0524937 56.7229 0.172479L13.4983 17.5403H1.19985C0.539932 17.5403 0 18.0952 0 18.7852V41.2074C0 41.8973 0.539932 42.4522 1.19985 42.4522H8.8189C8.54143 43.3221 8.39895 44.2445 8.39895 45.1819C8.39895 50.1237 12.4334 54.1432 17.3978 54.1432C21.5523 54.1432 25.0544 51.3236 26.0892 47.5141L56.7304 59.8275C57.0229 59.94 57.3153 60 57.6003 60C58.8676 60 60 58.9351 60 57.5103V2.48969C59.9925 1.06487 58.8676 0 57.5928 0ZM17.3978 48.7664C15.4106 48.7664 13.7983 47.1616 13.7983 45.1819C13.7983 44.342 14.0907 43.5396 14.6232 42.9021L20.9899 45.4593C20.8399 47.3041 19.2876 48.7664 17.3978 48.7664Z" fill="#F26F59"/>
</g>
<defs>
<filter id="filter0_i_1563_395" x="0" y="0" width="60" height="60" filterUnits="userSpaceOnUse" color-interpolation-filters="sRGB">
<feFlood flood-opacity="0" result="BackgroundImageFix"/>
<feBlend mode="normal" in="SourceGraphic" in2="BackgroundImageFix" result="shape"/>
<feColorMatrix in="SourceAlpha" type="matrix" values="0 0 0 0 0 0 0 0 0 0 0 0 0 0 0 0 0 0 127 0" result="hardAlpha"/>
<feOffset/>
<feGaussianBlur stdDeviation="5"/>
<feComposite in2="hardAlpha" operator="arithmetic" k2="-1" k3="1"/>
<feColorMatrix type="matrix" values="0 0 0 0 0 0 0 0 0 0 0 0 0 0 0 0 0 0 0.1 0"/>
<feBlend mode="normal" in2="shape" result="effect1_innerShadow_1563_395"/>
</filter>
</defs>
</svg>
