<svg width="40" height="40" viewBox="0 0 40 40" fill="none" xmlns="http://www.w3.org/2000/svg">
<g filter="url(#filter0_i_1063_2416)">
<path d="M38.3952 0C38.2052 0 38.0103 0.0349958 37.8153 0.114986L8.99888 11.6935H0.7999C0.359955 11.6935 0 12.0635 0 12.5234V27.4716C0 27.9315 0.359955 28.3015 0.7999 28.3015H5.87927C5.69429 28.8814 5.5993 29.4963 5.5993 30.1212C5.5993 33.4158 8.28896 36.0955 11.5986 36.0955C14.3682 36.0955 16.7029 34.2157 17.3928 31.676L37.8203 39.885C38.0153 39.96 38.2102 40 38.4002 40C39.2451 40 40 39.2901 40 38.3402V1.65979C39.995 0.709911 39.2451 0 38.3952 0ZM11.5986 32.5109C10.2737 32.5109 9.19885 31.4411 9.19885 30.1212C9.19885 29.5613 9.39383 29.0264 9.74878 28.6014L13.9933 30.3062C13.8933 31.5361 12.8584 32.5109 11.5986 32.5109Z" fill="#F5F5F5"/>
</g>
<defs>
<filter id="filter0_i_1063_2416" x="0" y="0" width="40" height="40" filterUnits="userSpaceOnUse" color-interpolation-filters="sRGB">
<feFlood flood-opacity="0" result="BackgroundImageFix"/>
<feBlend mode="normal" in="SourceGraphic" in2="BackgroundImageFix" result="shape"/>
<feColorMatrix in="SourceAlpha" type="matrix" values="0 0 0 0 0 0 0 0 0 0 0 0 0 0 0 0 0 0 127 0" result="hardAlpha"/>
<feOffset/>
<feGaussianBlur stdDeviation="5"/>
<feComposite in2="hardAlpha" operator="arithmetic" k2="-1" k3="1"/>
<feColorMatrix type="matrix" values="0 0 0 0 0 0 0 0 0 0 0 0 0 0 0 0 0 0 0.1 0"/>
<feBlend mode="normal" in2="shape" result="effect1_innerShadow_1063_2416"/>
</filter>
</defs>
</svg>
