<svg width="35" height="40" viewBox="0 0 35 40" fill="none" xmlns="http://www.w3.org/2000/svg">
<g filter="url(#filter0_i_1077_2794)">
<path d="M2 40C0.89543 40 0 39.1046 0 38V6C0 4.89543 0.895431 4 2 4H10.638C11.4872 4 12.2145 3.44322 12.6649 2.72331C13.059 2.09343 13.561 1.55233 14.1711 1.1C15.1602 0.366667 16.2698 0 17.5 0C18.7302 0 19.8405 0.366667 20.8308 1.1C21.4407 1.55156 21.9421 2.0916 22.3352 2.7201C22.7862 3.44127 23.5143 4 24.3649 4H33C34.1046 4 35 4.89543 35 6V38C35 39.1046 34.1046 40 33 40H2ZM7.77778 30C7.77778 31.1046 8.67321 32 9.77778 32H19.3889C20.4935 32 21.3889 31.1046 21.3889 30C21.3889 28.8954 20.4935 28 19.3889 28H9.77778C8.67321 28 7.77778 28.8954 7.77778 30ZM7.77778 22C7.77778 23.1046 8.67321 24 9.77778 24H25.2222C26.3268 24 27.2222 23.1046 27.2222 22C27.2222 20.8954 26.3268 20 25.2222 20H9.77778C8.67321 20 7.77778 20.8954 7.77778 22ZM7.77778 14C7.77778 15.1046 8.67321 16 9.77778 16H25.2222C26.3268 16 27.2222 15.1046 27.2222 14C27.2222 12.8954 26.3268 12 25.2222 12H9.77778C8.67321 12 7.77778 12.8954 7.77778 14ZM17.5 6.5C17.9213 6.5 18.27 6.358 18.5461 6.074C18.8222 5.79 18.9596 5.432 18.9583 5C18.957 4.568 18.819 4.21 18.5442 3.926C18.2694 3.642 17.9213 3.5 17.5 3.5C17.0787 3.5 16.7306 3.642 16.4558 3.926C16.181 4.21 16.043 4.568 16.0417 5C16.0404 5.432 16.1784 5.79067 16.4558 6.076C16.7332 6.36133 17.0813 6.50267 17.5 6.5Z" fill="#F4845F"/>
</g>
<defs>
<filter id="filter0_i_1077_2794" x="0" y="0" width="35" height="40" filterUnits="userSpaceOnUse" color-interpolation-filters="sRGB">
<feFlood flood-opacity="0" result="BackgroundImageFix"/>
<feBlend mode="normal" in="SourceGraphic" in2="BackgroundImageFix" result="shape"/>
<feColorMatrix in="SourceAlpha" type="matrix" values="0 0 0 0 0 0 0 0 0 0 0 0 0 0 0 0 0 0 127 0" result="hardAlpha"/>
<feOffset/>
<feGaussianBlur stdDeviation="5"/>
<feComposite in2="hardAlpha" operator="arithmetic" k2="-1" k3="1"/>
<feColorMatrix type="matrix" values="0 0 0 0 0 0 0 0 0 0 0 0 0 0 0 0 0 0 0.1 0"/>
<feBlend mode="normal" in2="shape" result="effect1_innerShadow_1077_2794"/>
</filter>
</defs>
</svg>
