<svg width="35" height="40" viewBox="0 0 35 40" fill="none" xmlns="http://www.w3.org/2000/svg">
<g filter="url(#filter0_i_1077_2662)">
<path d="M0 40V4H12.0556C12.4769 2.8 13.182 1.83333 14.1711 1.1C15.1602 0.366667 16.2698 0 17.5 0C18.7302 0 19.8405 0.366667 20.8308 1.1C21.8212 1.83333 22.5257 2.8 22.9444 4H35V40H0ZM7.77778 32H21.3889V28H7.77778V32ZM7.77778 24H27.2222V20H7.77778V24ZM7.77778 16H27.2222V12H7.77778V16ZM17.5 6.5C17.9213 6.5 18.27 6.358 18.5461 6.074C18.8222 5.79 18.9596 5.432 18.9583 5C18.957 4.568 18.819 4.21 18.5442 3.926C18.2694 3.642 17.9213 3.5 17.5 3.5C17.0787 3.5 16.7306 3.642 16.4558 3.926C16.181 4.21 16.043 4.568 16.0417 5C16.0404 5.432 16.1784 5.79067 16.4558 6.076C16.7332 6.36133 17.0813 6.50267 17.5 6.5Z" fill="#F5F5F5"/>
</g>
<defs>
<filter id="filter0_i_1077_2662" x="0" y="0" width="35" height="40" filterUnits="userSpaceOnUse" color-interpolation-filters="sRGB">
<feFlood flood-opacity="0" result="BackgroundImageFix"/>
<feBlend mode="normal" in="SourceGraphic" in2="BackgroundImageFix" result="shape"/>
<feColorMatrix in="SourceAlpha" type="matrix" values="0 0 0 0 0 0 0 0 0 0 0 0 0 0 0 0 0 0 127 0" result="hardAlpha"/>
<feOffset/>
<feGaussianBlur stdDeviation="5"/>
<feComposite in2="hardAlpha" operator="arithmetic" k2="-1" k3="1"/>
<feColorMatrix type="matrix" values="0 0 0 0 0 0 0 0 0 0 0 0 0 0 0 0 0 0 0.1 0"/>
<feBlend mode="normal" in2="shape" result="effect1_innerShadow_1077_2662"/>
</filter>
</defs>
</svg>
