<svg width="40" height="40" viewBox="0 0 40 40" fill="none" xmlns="http://www.w3.org/2000/svg">
<g filter="url(#filter0_i_1082_2506)">
<path d="M0 37.8571C0 38.4255 0.225765 38.9705 0.627628 39.3724C1.02949 39.7742 1.57454 40 2.14286 40H37.8571C38.4255 40 38.9705 39.7742 39.3724 39.3724C39.7742 38.9705 40 38.4255 40 37.8571V12.8571H0V37.8571ZM28.5714 16.0714C28.5714 15.9767 28.6091 15.8859 28.676 15.8189C28.743 15.7519 28.8339 15.7143 28.9286 15.7143H32.5C32.5947 15.7143 32.6856 15.7519 32.7525 15.8189C32.8195 15.8859 32.8571 15.9767 32.8571 16.0714V19.6429C32.8571 19.7376 32.8195 19.8284 32.7525 19.8954C32.6856 19.9624 32.5947 20 32.5 20H28.9286C28.8339 20 28.743 19.9624 28.676 19.8954C28.6091 19.8284 28.5714 19.7376 28.5714 19.6429V16.0714ZM28.5714 23.2143C28.5714 23.1196 28.6091 23.0287 28.676 22.9617C28.743 22.8948 28.8339 22.8571 28.9286 22.8571H32.5C32.5947 22.8571 32.6856 22.8948 32.7525 22.9617C32.8195 23.0287 32.8571 23.1196 32.8571 23.2143V26.7857C32.8571 26.8804 32.8195 26.9713 32.7525 27.0383C32.6856 27.1052 32.5947 27.1429 32.5 27.1429H28.9286C28.8339 27.1429 28.743 27.1052 28.676 27.0383C28.6091 26.9713 28.5714 26.8804 28.5714 26.7857V23.2143ZM21.4286 16.0714C21.4286 15.9767 21.4662 15.8859 21.5332 15.8189C21.6002 15.7519 21.691 15.7143 21.7857 15.7143H25.3571C25.4519 15.7143 25.5427 15.7519 25.6097 15.8189C25.6767 15.8859 25.7143 15.9767 25.7143 16.0714V19.6429C25.7143 19.7376 25.6767 19.8284 25.6097 19.8954C25.5427 19.9624 25.4519 20 25.3571 20H21.7857C21.691 20 21.6002 19.9624 21.5332 19.8954C21.4662 19.8284 21.4286 19.7376 21.4286 19.6429V16.0714ZM21.4286 23.2143C21.4286 23.1196 21.4662 23.0287 21.5332 22.9617C21.6002 22.8948 21.691 22.8571 21.7857 22.8571H25.3571C25.4519 22.8571 25.5427 22.8948 25.6097 22.9617C25.6767 23.0287 25.7143 23.1196 25.7143 23.2143V26.7857C25.7143 26.8804 25.6767 26.9713 25.6097 27.0383C25.5427 27.1052 25.4519 27.1429 25.3571 27.1429H21.7857C21.691 27.1429 21.6002 27.1052 21.5332 27.0383C21.4662 26.9713 21.4286 26.8804 21.4286 26.7857V23.2143ZM21.4286 30.3571C21.4286 30.2624 21.4662 30.1716 21.5332 30.1046C21.6002 30.0376 21.691 30 21.7857 30H25.3571C25.4519 30 25.5427 30.0376 25.6097 30.1046C25.6767 30.1716 25.7143 30.2624 25.7143 30.3571V33.9286C25.7143 34.0233 25.6767 34.1141 25.6097 34.1811C25.5427 34.2481 25.4519 34.2857 25.3571 34.2857H21.7857C21.691 34.2857 21.6002 34.2481 21.5332 34.1811C21.4662 34.1141 21.4286 34.0233 21.4286 33.9286V30.3571ZM14.2857 23.2143C14.2857 23.1196 14.3233 23.0287 14.3903 22.9617C14.4573 22.8948 14.5481 22.8571 14.6429 22.8571H18.2143C18.309 22.8571 18.3998 22.8948 18.4668 22.9617C18.5338 23.0287 18.5714 23.1196 18.5714 23.2143V26.7857C18.5714 26.8804 18.5338 26.9713 18.4668 27.0383C18.3998 27.1052 18.309 27.1429 18.2143 27.1429H14.6429C14.5481 27.1429 14.4573 27.1052 14.3903 27.0383C14.3233 26.9713 14.2857 26.8804 14.2857 26.7857V23.2143ZM14.2857 30.3571C14.2857 30.2624 14.3233 30.1716 14.3903 30.1046C14.4573 30.0376 14.5481 30 14.6429 30H18.2143C18.309 30 18.3998 30.0376 18.4668 30.1046C18.5338 30.1716 18.5714 30.2624 18.5714 30.3571V33.9286C18.5714 34.0233 18.5338 34.1141 18.4668 34.1811C18.3998 34.2481 18.309 34.2857 18.2143 34.2857H14.6429C14.5481 34.2857 14.4573 34.2481 14.3903 34.1811C14.3233 34.1141 14.2857 34.0233 14.2857 33.9286V30.3571ZM7.14286 23.2143C7.14286 23.1196 7.18048 23.0287 7.24746 22.9617C7.31444 22.8948 7.40528 22.8571 7.5 22.8571H11.0714C11.1661 22.8571 11.257 22.8948 11.324 22.9617C11.3909 23.0287 11.4286 23.1196 11.4286 23.2143V26.7857C11.4286 26.8804 11.3909 26.9713 11.324 27.0383C11.257 27.1052 11.1661 27.1429 11.0714 27.1429H7.5C7.40528 27.1429 7.31444 27.1052 7.24746 27.0383C7.18048 26.9713 7.14286 26.8804 7.14286 26.7857V23.2143ZM7.14286 30.3571C7.14286 30.2624 7.18048 30.1716 7.24746 30.1046C7.31444 30.0376 7.40528 30 7.5 30H11.0714C11.1661 30 11.257 30.0376 11.324 30.1046C11.3909 30.1716 11.4286 30.2624 11.4286 30.3571V33.9286C11.4286 34.0233 11.3909 34.1141 11.324 34.1811C11.257 34.2481 11.1661 34.2857 11.0714 34.2857H7.5C7.40528 34.2857 7.31444 34.2481 7.24746 34.1811C7.18048 34.1141 7.14286 34.0233 7.14286 33.9286V30.3571ZM37.8571 2.85714H32.8643V0H28.5786V2.85714H11.4214V0H7.13571V2.85714H2.14286C1.86252 2.85479 1.5845 2.90792 1.32479 3.01349C1.06508 3.11906 0.828833 3.27497 0.629649 3.47225C0.430464 3.66952 0.272283 3.90426 0.164219 4.16294C0.0561551 4.42162 0.000343473 4.69912 0 4.97946V10H40V4.97946C39.9997 4.69912 39.9438 4.42162 39.8358 4.16294C39.7277 3.90426 39.5695 3.66952 39.3703 3.47225C39.1712 3.27497 38.9349 3.11906 38.6752 3.01349C38.4155 2.90792 38.1375 2.85479 37.8571 2.85714Z" fill="#F4845F"/>
</g>
<defs>
<filter id="filter0_i_1082_2506" x="0" y="0" width="40" height="40" filterUnits="userSpaceOnUse" color-interpolation-filters="sRGB">
<feFlood flood-opacity="0" result="BackgroundImageFix"/>
<feBlend mode="normal" in="SourceGraphic" in2="BackgroundImageFix" result="shape"/>
<feColorMatrix in="SourceAlpha" type="matrix" values="0 0 0 0 0 0 0 0 0 0 0 0 0 0 0 0 0 0 127 0" result="hardAlpha"/>
<feOffset/>
<feGaussianBlur stdDeviation="5"/>
<feComposite in2="hardAlpha" operator="arithmetic" k2="-1" k3="1"/>
<feColorMatrix type="matrix" values="0 0 0 0 0 0 0 0 0 0 0 0 0 0 0 0 0 0 0.1 0"/>
<feBlend mode="normal" in2="shape" result="effect1_innerShadow_1082_2506"/>
</filter>
</defs>
</svg>
